<mxfile host="65bd71144e">
    <diagram id="A_tYOe9iZ1WcpGx81PBD" name="Page-1">
        <mxGraphModel dx="1726" dy="1750" grid="1" gridSize="10" guides="1" tooltips="1" connect="1" arrows="1" fold="1" page="1" pageScale="1" pageWidth="827" pageHeight="1169" math="0" shadow="0">
            <root>
                <mxCell id="0"/>
                <mxCell id="1" parent="0"/>
                <mxCell id="24" value="&lt;font style=&quot;font-size: 18px&quot;&gt;Start&lt;/font&gt;" style="strokeWidth=2;html=1;shape=mxgraph.flowchart.terminator;whiteSpace=wrap;" parent="1" vertex="1">
                    <mxGeometry width="160" height="80" as="geometry"/>
                </mxCell>
                <mxCell id="25" value="&lt;font style=&quot;font-size: 18px&quot;&gt;Stop&lt;/font&gt;" style="strokeWidth=2;html=1;shape=mxgraph.flowchart.terminator;whiteSpace=wrap;" parent="1" vertex="1">
                    <mxGeometry x="200" width="160" height="80" as="geometry"/>
                </mxCell>
                <mxCell id="59" style="edgeStyle=none;html=1;entryX=0.5;entryY=1;entryDx=0;entryDy=0;entryPerimeter=0;fontFamily=Helvetica;fontSize=15;fontColor=default;" parent="1" target="25" edge="1">
                    <mxGeometry relative="1" as="geometry">
                        <mxPoint x="279.99999999999955" y="120" as="sourcePoint"/>
                    </mxGeometry>
                </mxCell>
                <mxCell id="90" style="edgeStyle=none;html=1;entryX=0.5;entryY=0;entryDx=0;entryDy=0;" parent="1" edge="1">
                    <mxGeometry relative="1" as="geometry">
                        <mxPoint x="80" y="80" as="sourcePoint"/>
                        <mxPoint x="80.00000000000023" y="120" as="targetPoint"/>
                    </mxGeometry>
                </mxCell>
                <mxCell id="235" value="return&lt;br style=&quot;font-size: 15px&quot;&gt;smallest_number" style="shape=parallelogram;html=1;strokeWidth=2;perimeter=parallelogramPerimeter;whiteSpace=wrap;rounded=1;arcSize=12;size=0.23;fontSize=15;" parent="1" vertex="1">
                    <mxGeometry x="200" y="120" width="160" height="80" as="geometry"/>
                </mxCell>
                <mxCell id="293" style="edgeStyle=none;html=1;fontSize=15;" parent="1" source="239" target="292" edge="1">
                    <mxGeometry relative="1" as="geometry"/>
                </mxCell>
                <mxCell id="302" style="edgeStyle=orthogonalEdgeStyle;rounded=0;html=1;entryX=0.5;entryY=1;entryDx=0;entryDy=0;fontSize=15;endArrow=classic;endFill=1;" parent="1" source="239" target="235" edge="1">
                    <mxGeometry relative="1" as="geometry"/>
                </mxCell>
                <mxCell id="239" value="&lt;font style=&quot;font-size: 18px;&quot;&gt;for number in number_array&lt;br style=&quot;font-size: 18px;&quot;&gt;&lt;/font&gt;" style="rhombus;whiteSpace=wrap;html=1;rounded=1;fontFamily=Helvetica;fontSize=18;fontColor=default;strokeColor=default;strokeWidth=2;fillColor=default;" parent="1" vertex="1">
                    <mxGeometry y="360" width="160" height="160" as="geometry"/>
                </mxCell>
                <mxCell id="241" value="&lt;span style=&quot;font-size: 15px&quot;&gt;No&lt;/span&gt;" style="text;html=1;align=center;verticalAlign=middle;resizable=0;points=[];autosize=1;strokeColor=none;fillColor=none;fontSize=8;fontFamily=Helvetica;fontColor=default;" parent="1" vertex="1">
                    <mxGeometry x="160" y="420" width="30" height="20" as="geometry"/>
                </mxCell>
                <mxCell id="250" style="edgeStyle=none;html=1;entryX=0.5;entryY=0;entryDx=0;entryDy=0;" parent="1" edge="1">
                    <mxGeometry relative="1" as="geometry">
                        <mxPoint x="80" y="320" as="sourcePoint"/>
                    </mxGeometry>
                </mxCell>
                <mxCell id="251" style="edgeStyle=none;html=1;entryX=0.5;entryY=0;entryDx=0;entryDy=0;" parent="1" edge="1">
                    <mxGeometry relative="1" as="geometry">
                        <mxPoint x="80" y="440" as="sourcePoint"/>
                    </mxGeometry>
                </mxCell>
                <mxCell id="265" style="edgeStyle=none;html=1;fontSize=18;" parent="1" edge="1">
                    <mxGeometry relative="1" as="geometry">
                        <mxPoint x="80" y="200" as="sourcePoint"/>
                        <mxPoint x="80" y="240" as="targetPoint"/>
                    </mxGeometry>
                </mxCell>
                <mxCell id="290" style="edgeStyle=none;html=1;fontSize=15;" parent="1" target="239" edge="1">
                    <mxGeometry relative="1" as="geometry">
                        <mxPoint x="80" y="320" as="sourcePoint"/>
                    </mxGeometry>
                </mxCell>
                <mxCell id="288" value="Set the&lt;br&gt;number array" style="shape=parallelogram;html=1;strokeWidth=2;perimeter=parallelogramPerimeter;whiteSpace=wrap;rounded=1;arcSize=12;size=0.23;fontSize=18;" parent="1" vertex="1">
                    <mxGeometry y="120" width="160" height="80" as="geometry"/>
                </mxCell>
                <mxCell id="289" value="&lt;span style=&quot;font-size: 15px&quot;&gt;Yes&lt;/span&gt;" style="text;html=1;align=center;verticalAlign=middle;resizable=0;points=[];autosize=1;strokeColor=none;fillColor=none;fontSize=8;fontFamily=Helvetica;fontColor=default;" parent="1" vertex="1">
                    <mxGeometry x="80" y="520" width="40" height="20" as="geometry"/>
                </mxCell>
                <mxCell id="291" value="Set the smallest&lt;br style=&quot;font-size: 13px;&quot;&gt;number to the first&lt;br style=&quot;font-size: 13px;&quot;&gt;number in the&lt;br style=&quot;font-size: 13px;&quot;&gt;number array" style="shape=parallelogram;html=1;strokeWidth=2;perimeter=parallelogramPerimeter;whiteSpace=wrap;rounded=1;arcSize=12;size=0.23;fontSize=13;" parent="1" vertex="1">
                    <mxGeometry y="240" width="160" height="80" as="geometry"/>
                </mxCell>
                <mxCell id="295" style="edgeStyle=none;html=1;entryX=0;entryY=0.5;entryDx=0;entryDy=0;fontSize=15;" parent="1" source="292" target="294" edge="1">
                    <mxGeometry relative="1" as="geometry"/>
                </mxCell>
                <mxCell id="299" style="edgeStyle=orthogonalEdgeStyle;rounded=0;html=1;fontSize=15;endArrow=none;endFill=0;" parent="1" source="292" edge="1">
                    <mxGeometry relative="1" as="geometry">
                        <mxPoint x="80" y="760" as="targetPoint"/>
                    </mxGeometry>
                </mxCell>
                <mxCell id="292" value="&lt;font style=&quot;font-size: 16px;&quot;&gt;if number &amp;lt; smallest_number&lt;br style=&quot;font-size: 16px;&quot;&gt;&lt;/font&gt;" style="rhombus;whiteSpace=wrap;html=1;rounded=1;fontFamily=Helvetica;fontSize=16;fontColor=default;strokeColor=default;strokeWidth=2;fillColor=default;" parent="1" vertex="1">
                    <mxGeometry y="560" width="160" height="160" as="geometry"/>
                </mxCell>
                <mxCell id="298" style="edgeStyle=orthogonalEdgeStyle;html=1;entryX=0;entryY=0.5;entryDx=0;entryDy=0;fontSize=15;rounded=0;" parent="1" source="294" target="239" edge="1">
                    <mxGeometry relative="1" as="geometry">
                        <Array as="points">
                            <mxPoint x="280" y="760"/>
                            <mxPoint x="-40" y="760"/>
                            <mxPoint x="-40" y="440"/>
                        </Array>
                    </mxGeometry>
                </mxCell>
                <mxCell id="294" value="smallest_number =&lt;br style=&quot;font-size: 18px;&quot;&gt;number" style="rounded=1;whiteSpace=wrap;html=1;fontSize=18;strokeWidth=2;" parent="1" vertex="1">
                    <mxGeometry x="200" y="600" width="160" height="80" as="geometry"/>
                </mxCell>
                <mxCell id="296" value="&lt;span style=&quot;font-size: 15px&quot;&gt;Yes&lt;/span&gt;" style="text;html=1;align=center;verticalAlign=middle;resizable=0;points=[];autosize=1;strokeColor=none;fillColor=none;fontSize=8;fontFamily=Helvetica;fontColor=default;" parent="1" vertex="1">
                    <mxGeometry x="155" y="620" width="40" height="20" as="geometry"/>
                </mxCell>
                <mxCell id="300" value="&lt;span style=&quot;font-size: 15px&quot;&gt;No&lt;/span&gt;" style="text;html=1;align=center;verticalAlign=middle;resizable=0;points=[];autosize=1;strokeColor=none;fillColor=none;fontSize=8;fontFamily=Helvetica;fontColor=default;" parent="1" vertex="1">
                    <mxGeometry x="80" y="720" width="30" height="20" as="geometry"/>
                </mxCell>
            </root>
        </mxGraphModel>
    </diagram>
</mxfile>